<svg width="251" height="173" viewBox="0 0 502 347" fill="none" xmlns="http://www.w3.org/2000/svg">
<path d="M42.1523 245.262V259.377H0.773438V245.262H42.1523ZM10.248 227.988H30.4219V293.15C30.4219 295.084 30.6582 296.566 31.1309 297.598C31.6035 298.629 32.377 299.359 33.4512 299.789C34.5254 300.176 35.9004 300.369 37.5762 300.369C38.7793 300.369 39.8105 300.326 40.6699 300.24C41.5293 300.154 42.3242 300.047 43.0547 299.918V314.484C41.3359 315.043 39.5098 315.473 37.5762 315.773C35.6426 316.117 33.5371 316.289 31.2598 316.289C26.9199 316.289 23.1602 315.58 19.9805 314.162C16.8438 312.744 14.4375 310.51 12.7617 307.459C11.0859 304.365 10.248 300.348 10.248 295.406V227.988ZM71.9941 261.504V315H51.8848V245.262H70.7695L71.9941 261.504ZM92.8125 244.746L92.4902 263.502C91.6309 263.373 90.5137 263.266 89.1387 263.18C87.7637 263.051 86.582 262.986 85.5938 262.986C83.0156 262.986 80.7812 263.309 78.8906 263.953C77.043 264.555 75.4961 265.457 74.25 266.66C73.0469 267.863 72.1445 269.367 71.543 271.172C70.9414 272.934 70.6406 274.975 70.6406 277.295L66.8379 275.426C66.8379 270.828 67.2891 266.617 68.1914 262.793C69.0938 258.969 70.4043 255.66 72.123 252.867C73.8418 250.031 75.9473 247.84 78.4395 246.293C80.9316 244.746 83.7676 243.973 86.9473 243.973C87.9785 243.973 89.0312 244.037 90.1055 244.166C91.1797 244.295 92.082 244.488 92.8125 244.746ZM141.99 298.178V245.262H162.229V315H143.279L141.99 298.178ZM144.117 283.934L149.66 283.805C149.66 288.488 149.102 292.807 147.984 296.76C146.91 300.713 145.277 304.15 143.086 307.072C140.938 309.994 138.252 312.271 135.029 313.904C131.85 315.494 128.133 316.289 123.879 316.289C120.441 316.289 117.283 315.816 114.404 314.871C111.568 313.883 109.119 312.357 107.057 310.295C104.994 308.189 103.404 305.504 102.287 302.238C101.17 298.93 100.611 294.977 100.611 290.379V245.262H120.721V290.508C120.721 292.312 120.936 293.859 121.365 295.148C121.838 296.395 122.461 297.426 123.234 298.242C124.051 299.059 125.039 299.66 126.199 300.047C127.402 300.434 128.713 300.627 130.131 300.627C133.697 300.627 136.49 299.896 138.51 298.436C140.572 296.932 142.012 294.934 142.828 292.441C143.688 289.906 144.117 287.07 144.117 283.934ZM195.035 260.15V315H174.861V245.262H193.811L195.035 260.15ZM192.393 277.682L187.365 277.811C187.365 272.568 188.01 267.863 189.299 263.695C190.588 259.527 192.414 255.982 194.777 253.061C197.184 250.096 200.041 247.84 203.35 246.293C206.701 244.746 210.396 243.973 214.436 243.973C217.701 243.973 220.688 244.445 223.395 245.391C226.102 246.336 228.422 247.861 230.355 249.967C232.332 252.029 233.836 254.779 234.867 258.217C235.898 261.611 236.414 265.801 236.414 270.785V315H216.176V270.721C216.176 267.799 215.768 265.543 214.951 263.953C214.135 262.363 212.932 261.246 211.342 260.602C209.795 259.957 207.904 259.635 205.67 259.635C203.307 259.635 201.287 260.107 199.611 261.053C197.936 261.955 196.561 263.223 195.486 264.855C194.412 266.488 193.617 268.4 193.102 270.592C192.629 272.783 192.393 275.146 192.393 277.682ZM269.801 215.936V315H249.627V215.936H269.801ZM314.08 245.262L283.723 280.324L267.674 296.438L259.617 282.838L272.637 266.016L289.846 245.262H314.08ZM292.811 315L273.152 282.967L287.59 271.688L315.885 315H292.811Z" fill="#3BEED6"/>
<path d="M356.426 245.262V259.377H315.047V245.262H356.426ZM324.521 227.988H344.695V293.15C344.695 295.084 344.932 296.566 345.404 297.598C345.877 298.629 346.65 299.359 347.725 299.789C348.799 300.176 350.174 300.369 351.85 300.369C353.053 300.369 354.084 300.326 354.943 300.24C355.803 300.154 356.598 300.047 357.328 299.918V314.484C355.609 315.043 353.783 315.473 351.85 315.773C349.916 316.117 347.811 316.289 345.533 316.289C341.193 316.289 337.434 315.58 334.254 314.162C331.117 312.744 328.711 310.51 327.035 307.459C325.359 304.365 324.521 300.348 324.521 295.406V227.988ZM403.025 298.371V268.465C403.025 266.359 402.703 264.555 402.059 263.051C401.414 261.547 400.404 260.365 399.029 259.506C397.654 258.646 395.871 258.217 393.68 258.217C391.832 258.217 390.221 258.539 388.846 259.184C387.514 259.828 386.482 260.752 385.752 261.955C385.064 263.158 384.721 264.641 384.721 266.402H364.611C364.611 263.266 365.32 260.344 366.738 257.637C368.156 254.93 370.176 252.545 372.797 250.482C375.461 248.42 378.641 246.83 382.336 245.713C386.031 244.553 390.178 243.973 394.775 243.973C400.232 243.973 405.088 244.896 409.342 246.744C413.639 248.549 417.033 251.277 419.525 254.93C422.018 258.539 423.264 263.094 423.264 268.594V297.791C423.264 302.002 423.5 305.311 423.973 307.717C424.488 310.08 425.219 312.143 426.164 313.904V315H405.861C404.916 312.98 404.207 310.488 403.734 307.523C403.262 304.516 403.025 301.465 403.025 298.371ZM405.539 272.461L405.668 283.547H395.678C393.443 283.547 391.51 283.826 389.877 284.385C388.287 284.943 386.998 285.717 386.01 286.705C385.021 287.65 384.291 288.768 383.818 290.057C383.389 291.303 383.174 292.678 383.174 294.182C383.174 295.6 383.518 296.889 384.205 298.049C384.893 299.166 385.838 300.047 387.041 300.691C388.244 301.336 389.641 301.658 391.23 301.658C393.852 301.658 396.086 301.143 397.934 300.111C399.824 299.08 401.285 297.834 402.316 296.373C403.348 294.869 403.863 293.473 403.863 292.184L408.697 300.562C407.924 302.281 406.979 304.064 405.861 305.912C404.744 307.717 403.326 309.414 401.607 311.004C399.889 312.551 397.805 313.818 395.355 314.807C392.949 315.795 390.049 316.289 386.654 316.289C382.271 316.289 378.297 315.408 374.73 313.646C371.164 311.842 368.307 309.371 366.158 306.234C364.053 303.098 363 299.488 363 295.406C363 291.754 363.666 288.51 364.998 285.674C366.33 282.838 368.328 280.432 370.992 278.455C373.699 276.479 377.094 274.996 381.176 274.008C385.258 272.977 390.027 272.461 395.484 272.461H405.539ZM457.682 245.262V315H437.508V245.262H457.682ZM436.283 227.215C436.283 224.293 437.314 221.908 439.377 220.061C441.439 218.17 444.146 217.225 447.498 217.225C450.85 217.225 453.557 218.17 455.619 220.061C457.725 221.908 458.777 224.293 458.777 227.215C458.777 230.094 457.725 232.479 455.619 234.369C453.557 236.217 450.85 237.141 447.498 237.141C444.146 237.141 441.439 236.217 439.377 234.369C437.314 232.479 436.283 230.094 436.283 227.215ZM493.389 216V315H473.215V216H493.389Z" fill="#1AAA97"/>
<path d="M214.849 48.2797C212.55 48.2797 210.372 48.7826 208.404 49.6667C209.813 50.1517 211.004 51.1215 211.764 52.4032C212.524 53.6848 212.804 55.1949 212.554 56.6639C212.304 58.1329 211.54 59.4652 210.399 60.4231C209.257 61.381 207.812 61.9021 206.322 61.8934C205.028 61.8909 203.767 61.4899 202.709 60.7449C201.652 59.9998 200.849 58.947 200.411 57.7297C199.362 60.1283 198.927 62.7504 199.145 65.3592C199.364 67.968 200.228 70.4814 201.661 72.6724C203.094 74.8635 205.05 76.6631 207.352 77.9089C209.655 79.1548 212.231 79.8075 214.849 79.8082C216.919 79.8079 218.969 79.3998 220.881 78.6073C222.794 77.8149 224.531 76.6535 225.995 75.1895C227.458 73.7255 228.619 71.9877 229.411 70.0751C230.203 68.1625 230.61 66.1127 230.61 64.0426C230.61 61.9727 230.203 59.9228 229.411 58.0102C228.62 56.0976 227.459 54.3598 225.995 52.8959C224.532 51.4321 222.794 50.271 220.881 49.4789C218.969 48.6868 216.919 48.2793 214.849 48.2797ZM275.791 49.6667C277.2 50.1517 278.391 51.1215 279.151 52.4032C279.911 53.6848 280.191 55.1949 279.941 56.6639C279.691 58.1329 278.927 59.4652 277.785 60.4231C276.644 61.381 275.199 61.9021 273.709 61.8934C272.415 61.8913 271.153 61.4901 270.096 60.7445C269.038 59.9988 268.237 58.9451 267.8 57.7271C266.752 60.1259 266.317 62.7481 266.535 65.357C266.753 67.9659 267.618 70.4794 269.051 72.6706C270.483 74.8617 272.439 76.6616 274.742 77.9078C277.044 79.1539 279.621 79.807 282.239 79.8082C286.419 79.8068 290.427 78.1451 293.382 75.1886C296.337 72.2321 297.997 68.2228 297.996 64.0426C297.996 61.413 297.338 58.8252 296.081 56.5152C294.824 54.2052 293.01 52.2464 290.802 50.8173C288.595 49.3881 286.065 48.5342 283.443 48.3332C280.821 48.1323 278.19 48.5907 275.791 49.6667Z" fill="#068978"/>
<path d="M361.073 76.714C382.083 18.1836 347.169 -7.84353 314.966 2.07314C302.957 5.77018 291.539 12.7546 281.913 21.7017C272.217 17.9035 261.691 15.7724 250.996 15.7724C240.198 15.7724 229.569 17.9424 219.789 21.8132C210.14 12.8117 198.667 5.78573 186.609 2.07314C154.407 -7.84353 119.492 18.1836 140.5 76.714C150.946 105.813 116.244 141.29 156.317 160.621C169.698 167.076 184.193 163.698 198.362 153.592C200.823 156.727 203.548 159.644 206.507 162.314C210.832 166.239 210.526 160.748 209.377 158.84C216.922 165.632 226.004 170.607 236.009 173.127C241.712 174.584 239.117 169.345 238.246 168.959C242.353 169.894 246.62 170.397 250.996 170.397C253.695 170.397 256.345 170.187 258.945 169.819C252.363 163.711 246.703 155.625 242.192 146.911C242.192 146.911 237.333 136.343 235.972 132.504L237.798 126.269C246.965 150.748 267.081 175.002 282.336 176C310.266 177.828 320.424 146.548 320.748 143.528C321.069 140.505 318.018 138.003 314.658 136.486C311.298 134.97 306.924 133.992 305.791 136.209C303.577 140.528 299.084 152.21 290.119 149.869C288.071 149.337 286.113 148.51 284.303 147.414C281.148 148.633 277.192 149.032 274.789 147.614C272.717 146.393 274.013 145.348 275.852 145.397C277.869 145.444 279.484 145.234 280.873 144.808C280.126 144.098 279.431 143.334 278.794 142.522C275.538 143.377 271.991 143.46 269.666 142.094C267.223 140.655 268.75 139.421 270.915 139.473C273.085 139.527 274.853 139.32 276.393 138.913C275.801 137.837 275.267 136.729 274.796 135.594C272.86 135.776 270.98 135.594 269.616 134.793C267.542 133.572 268.839 132.522 270.674 132.566C271.659 132.598 272.646 132.556 273.625 132.439C273.255 131.309 272.921 130.168 272.624 129.017C270.34 129.393 268.04 129.261 266.438 128.317C264.366 127.091 265.66 126.046 267.498 126.09C268.959 126.147 270.421 126.016 271.849 125.698C271.66 124.794 271.483 123.888 271.317 122.979C267.846 124.06 263.85 124.283 261.32 122.792C258.878 121.353 260.402 120.117 262.57 120.168C266.046 120.254 268.566 119.751 270.604 118.621C270.446 117.578 270.301 116.544 270.156 115.515C267.12 116.549 263.516 116.819 261.271 115.489C259.197 114.273 260.493 113.225 262.331 113.27C265.564 113.345 267.802 112.8 269.616 111.636C269.134 108.248 268.639 105.08 267.942 102.355C263.965 86.7784 256.985 84.9999 249.342 84.9999C238.313 84.9999 230.805 95.8448 234.938 115.839C235.677 119.371 236.632 122.854 237.798 126.269L235.972 132.504C232.275 121.869 230.103 110.651 230.432 102.515C231.36 79.5321 257.657 75.3114 266.453 89.9958C274.174 102.886 271.952 116.129 275.751 128.462C280.028 142.358 286.123 146.794 293.03 145.7C300.308 144.544 299.659 140.199 302.625 134.438C304.329 131.13 308.508 129.714 317.045 134.327C317.675 134.669 318.248 135.003 318.795 135.34C321.931 126.72 323.531 117.617 323.524 108.445C323.524 105.72 323.387 103.037 323.117 100.392C323.706 104.755 330.843 110.796 329.674 99.6584C329.224 95.4307 328.559 91.2286 327.68 87.0688C327.519 86.2729 327.364 85.5806 327.232 84.9895C327.149 84.6162 327.079 84.2532 326.993 83.8773C326.076 79.0705 324.648 74.3754 322.734 69.8721C326.039 73.5329 329.059 73.1051 326.91 67.2017C325.664 63.8284 324.168 60.5526 322.435 57.4017C316.016 44.1588 304.699 33.2284 290.959 25.8809C297.476 20.5558 304.736 16.392 312.311 13.968C338.416 5.59908 367.689 28.1754 350.936 78.4614C342.608 103.459 370.222 134.213 337.776 150.634C332.845 153.133 327.716 153.862 322.498 153.105C321.131 156.012 319.533 158.805 317.717 161.456C327.102 164.854 336.415 164.883 345.245 160.626C385.332 141.29 350.627 105.813 361.073 76.714ZM307.206 138.081C307.725 136.886 310.6 136.992 313.805 138.291C316.345 139.323 318.985 141.345 318.349 143.199C317.813 144.77 315.14 144.497 311.85 143.199C309.177 142.141 306.379 139.984 307.206 138.081ZM163.789 150.631C131.338 134.21 158.951 103.457 150.624 78.4588C133.873 28.1728 163.149 5.59649 189.251 13.9654C196.894 16.4128 204.221 20.6206 210.783 26.0106C197.151 33.3554 185.933 44.2365 179.55 57.3991C177.82 60.5514 176.325 63.827 175.077 67.1991C172.928 73.1025 175.949 73.5302 179.254 69.8695C177.341 74.3731 175.914 79.0682 174.997 83.8747C174.909 84.2584 174.836 84.6318 174.751 85.0129C174.621 85.591 174.468 86.2651 174.318 87.0351C173.434 91.2038 172.767 95.4155 172.319 99.6533C171.147 110.791 178.29 104.75 178.876 100.387C178.604 103.063 178.468 105.75 178.469 108.44C178.469 118.74 180.442 128.558 184.006 137.51C186.14 142.887 188.634 137.516 187.807 135.078C189.451 139.308 191.491 143.372 193.9 147.217C183.659 153.727 173.351 155.474 163.789 150.631ZM217.303 90.1203C211.45 90.1203 205.837 87.7952 201.698 83.6567C197.56 79.5181 195.235 73.9049 195.235 68.0521C195.235 62.1993 197.56 56.5861 201.698 52.4475C205.837 48.309 211.45 45.9839 217.303 45.9839C223.156 45.9839 228.769 48.309 232.908 52.4475C237.046 56.5861 239.371 62.1993 239.371 68.0521C239.371 73.9049 237.046 79.5181 232.908 83.6567C228.769 87.7952 223.156 90.1203 217.303 90.1203ZM306.758 68.0521C306.758 73.9053 304.432 79.5186 300.293 83.6572C296.154 87.7958 290.54 90.1206 284.687 90.1203C278.834 90.1199 273.221 87.7944 269.082 83.6554C264.944 79.5163 262.619 73.9027 262.619 68.0495C262.619 62.1963 264.945 56.583 269.084 52.4444C271.133 50.3952 273.566 48.7697 276.244 47.6608C278.922 46.5518 281.792 45.9812 284.69 45.9813C287.588 45.9815 290.458 46.5525 293.135 47.6618C295.813 48.771 298.246 50.3968 300.295 52.4463C302.344 54.4957 303.97 56.9287 305.079 59.6064C306.187 62.284 306.758 65.1539 306.758 68.0521Z" fill="#12E4C8"/>
</svg>
